<mxfile host="app.diagrams.net" modified="2020-06-17T11:20:59.807Z" agent="5.0 (Windows NT 10.0; Win64; x64) AppleWebKit/537.36 (KHTML, like Gecko) Chrome/83.0.4103.97 Safari/537.36" etag="sPB-nM6OnmkJbEjhE4s2" version="13.2.4" type="github">
  <diagram id="bpw89ud0i77X6hliHFxi" name="第 1 页">
    <mxGraphModel dx="823" dy="740" grid="1" gridSize="10" guides="1" tooltips="1" connect="1" arrows="1" fold="1" page="1" pageScale="1" pageWidth="827" pageHeight="1169" math="0" shadow="0">
      <root>
        <mxCell id="0" />
        <mxCell id="1" parent="0" />
        <mxCell id="usz8K5ZpOrYXPjKJflXS-16" value="执行栈" style="text;html=1;align=center;verticalAlign=middle;resizable=0;points=[];autosize=1;fontSize=18;fontStyle=1" parent="1" vertex="1">
          <mxGeometry x="154" y="120" width="70" height="30" as="geometry" />
        </mxCell>
        <mxCell id="usz8K5ZpOrYXPjKJflXS-17" value="" style="rounded=0;whiteSpace=wrap;html=1;fillColor=#f8cecc;strokeColor=#b85450;" parent="1" vertex="1">
          <mxGeometry x="134.29" y="170" width="111.43" height="260" as="geometry" />
        </mxCell>
        <mxCell id="usz8K5ZpOrYXPjKJflXS-18" value="Web APIS" style="text;html=1;align=center;verticalAlign=middle;resizable=0;points=[];autosize=1;fontSize=18;fontStyle=1" parent="1" vertex="1">
          <mxGeometry x="424" y="130" width="100" height="30" as="geometry" />
        </mxCell>
        <mxCell id="usz8K5ZpOrYXPjKJflXS-20" value="DOM" style="rounded=0;whiteSpace=wrap;html=1;fontSize=14;fillColor=#dae8fc;strokeColor=#6c8ebf;" parent="1" vertex="1">
          <mxGeometry x="416" y="190" width="116" height="50" as="geometry" />
        </mxCell>
        <mxCell id="usz8K5ZpOrYXPjKJflXS-21" value="AJAX" style="rounded=0;whiteSpace=wrap;html=1;fontSize=14;fillColor=#dae8fc;strokeColor=#6c8ebf;" parent="1" vertex="1">
          <mxGeometry x="416" y="270" width="116" height="50" as="geometry" />
        </mxCell>
        <mxCell id="usz8K5ZpOrYXPjKJflXS-22" value="setTimeout" style="rounded=0;whiteSpace=wrap;html=1;fontSize=18;fillColor=#dae8fc;strokeColor=#6c8ebf;" parent="1" vertex="1">
          <mxGeometry x="414" y="340" width="116" height="50" as="geometry" />
        </mxCell>
        <mxCell id="usz8K5ZpOrYXPjKJflXS-23" value="" style="rounded=0;whiteSpace=wrap;html=1;fontSize=18;fillColor=#d5e8d4;strokeColor=#82b366;" parent="1" vertex="1">
          <mxGeometry x="281" y="503.75" width="260" height="70" as="geometry" />
        </mxCell>
        <mxCell id="usz8K5ZpOrYXPjKJflXS-24" value="&lt;b&gt;任务队列&lt;/b&gt;" style="text;html=1;align=center;verticalAlign=middle;resizable=0;points=[];autosize=1;fontSize=18;" parent="1" vertex="1">
          <mxGeometry x="366" y="458" width="90" height="30" as="geometry" />
        </mxCell>
        <mxCell id="usz8K5ZpOrYXPjKJflXS-25" value="onLoad" style="rounded=0;whiteSpace=wrap;html=1;fontSize=14;" parent="1" vertex="1">
          <mxGeometry x="296" y="520" width="70" height="37.5" as="geometry" />
        </mxCell>
        <mxCell id="usz8K5ZpOrYXPjKJflXS-26" value="onClick" style="rounded=0;whiteSpace=wrap;html=1;fontSize=14;" parent="1" vertex="1">
          <mxGeometry x="390" y="520" width="66" height="37.5" as="geometry" />
        </mxCell>
        <mxCell id="usz8K5ZpOrYXPjKJflXS-34" style="edgeStyle=orthogonalEdgeStyle;rounded=0;orthogonalLoop=1;jettySize=auto;html=1;fontSize=18;fontStyle=1" parent="1" source="usz8K5ZpOrYXPjKJflXS-27" edge="1">
          <mxGeometry relative="1" as="geometry">
            <mxPoint x="472" y="500" as="targetPoint" />
          </mxGeometry>
        </mxCell>
        <mxCell id="usz8K5ZpOrYXPjKJflXS-27" value="setTimeout" style="rounded=0;whiteSpace=wrap;html=1;fontSize=14;fillColor=#dae8fc;strokeColor=#6c8ebf;" parent="1" vertex="1">
          <mxGeometry x="414" y="340" width="116" height="50" as="geometry" />
        </mxCell>
        <mxCell id="usz8K5ZpOrYXPjKJflXS-30" value="" style="endArrow=classic;html=1;fontSize=18;entryX=0.75;entryY=1;entryDx=0;entryDy=0;fontStyle=1" parent="1" target="usz8K5ZpOrYXPjKJflXS-17" edge="1">
          <mxGeometry width="50" height="50" relative="1" as="geometry">
            <mxPoint x="280" y="540" as="sourcePoint" />
            <mxPoint x="250" y="480" as="targetPoint" />
          </mxGeometry>
        </mxCell>
        <mxCell id="usz8K5ZpOrYXPjKJflXS-32" value="&lt;b&gt;事件循环&lt;/b&gt;" style="text;html=1;align=center;verticalAlign=middle;resizable=0;points=[];autosize=1;fontSize=18;" parent="1" vertex="1">
          <mxGeometry x="160" y="510" width="90" height="30" as="geometry" />
        </mxCell>
        <mxCell id="usz8K5ZpOrYXPjKJflXS-35" value="foo()" style="rounded=0;whiteSpace=wrap;html=1;fontSize=14;" parent="1" vertex="1">
          <mxGeometry x="147.5" y="240" width="85" height="30" as="geometry" />
        </mxCell>
        <mxCell id="usz8K5ZpOrYXPjKJflXS-40" style="edgeStyle=orthogonalEdgeStyle;rounded=0;orthogonalLoop=1;jettySize=auto;html=1;fontSize=14;" parent="1" source="usz8K5ZpOrYXPjKJflXS-36" edge="1">
          <mxGeometry relative="1" as="geometry">
            <mxPoint x="410" y="303.75" as="targetPoint" />
          </mxGeometry>
        </mxCell>
        <mxCell id="usz8K5ZpOrYXPjKJflXS-36" value="query()" style="rounded=0;whiteSpace=wrap;html=1;fontSize=14;" parent="1" vertex="1">
          <mxGeometry x="147.5" y="287.5" width="82.5" height="32.5" as="geometry" />
        </mxCell>
        <mxCell id="usz8K5ZpOrYXPjKJflXS-37" value="bar()" style="rounded=0;whiteSpace=wrap;html=1;fontSize=14;" parent="1" vertex="1">
          <mxGeometry x="145" y="340" width="85" height="30" as="geometry" />
        </mxCell>
      </root>
    </mxGraphModel>
  </diagram>
</mxfile>
